<?xml version="1.0" encoding="UTF-8"?>
<svg version="1.1" xmlns="http://www.w3.org/2000/svg" width="512" height="512">
<path d="M0 0 C4.24887712 1.167003 7.52866667 0.64813196 11.73828125 -0.59375 C14.48460602 -1.1791123 17.06770932 -1.23229955 19.875 -1.25 C20.89464844 -1.26417969 21.91429687 -1.27835938 22.96484375 -1.29296875 C26.04024465 -1.05453425 28.10272903 -0.21258141 30.9375 0.9375 C33.66349431 1.21415227 33.66349431 1.21415227 36.4375 1.125 C37.3553125 1.11855469 38.273125 1.11210937 39.21875 1.10546875 C41.89546371 1.00567629 41.89546371 1.00567629 44.3046875 0.44189453 C57.25447825 -2.03902792 73.65408557 -1.6789488 84.80078125 5.87890625 C87.26845963 7.81805149 89.60208209 9.8429355 91.9375 11.9375 C93.96851158 13.72297391 93.96851158 13.72297391 95.9375 14.9375 C96.659375 14.64875 97.38125 14.36 98.125 14.0625 C102.28739301 12.3975428 105.69496768 12.48110831 109.9375 13.9375 C114.24450724 17.11527509 118.05421173 20.47828776 118.9375 25.9375 C119.65035156 25.97488281 120.36320313 26.01226562 121.09765625 26.05078125 C133.81697635 26.9238436 133.81697635 26.9238436 138.6484375 31.58984375 C140.48299962 34.93097052 139.90504347 37.42713386 139.5625 41.1875 C139.34018577 45.30702745 139.37849735 48.16873188 141.89453125 51.62890625 C144.1603114 53.56641589 146.4822906 55.25273438 148.9375 56.9375 C150.16075331 59.38400661 150.07068057 61.02177851 150.0625 63.75 C150.06056641 65.09578125 150.06056641 65.09578125 150.05859375 66.46875 C149.9375 68.9375 149.9375 68.9375 149.125 71.75 C149.063125 72.471875 149.00125 73.19375 148.9375 73.9375 C150.175 75.1440625 150.175 75.1440625 151.4375 76.375 C152.675 77.6434375 152.675 77.6434375 153.9375 78.9375 C153.625 82.125 153.625 82.125 152.9375 84.9375 C153.5975 85.5975 154.2575 86.2575 154.9375 86.9375 C155.42087545 89.97585998 155.52843686 92.02741605 153.81640625 94.6640625 C152.58208637 96.13965171 151.26424117 97.54442177 149.9375 98.9375 C151.0821875 99.0303125 151.0821875 99.0303125 152.25 99.125 C154.9375 99.9375 154.9375 99.9375 156.9375 102 C158.12963239 105.50188888 157.61579913 107.40452253 156.16796875 110.76171875 C154.33223895 114.00775525 152.01571022 116.77110601 149.55859375 119.56640625 C144.98082854 126.26207729 145.11654103 135.05200898 144.3125 142.875 C144.1784375 144.13119141 144.044375 145.38738281 143.90625 146.68164062 C143.57783567 149.76638947 143.25509376 152.85162153 142.9375 155.9375 C143.99710937 156.05222656 145.05671875 156.16695312 146.1484375 156.28515625 C152.30628391 157.34532156 156.80548017 160.15251818 160.62109375 165.13671875 C164.58744646 172.11435341 165.43786357 179.46723033 163.30859375 187.23046875 C160.44940378 193.85917374 155.04085038 198.66290967 148.4375 201.375 C142.15781416 202.38423522 136.96200624 202.3473025 130.9375 199.9375 C131.12183594 200.73414063 131.30617188 201.53078125 131.49609375 202.3515625 C133.14989356 215.78685655 128.56423339 228.74597815 121.94091797 240.19042969 C120.44549467 242.79413994 119.08097742 245.46569194 117.6875 248.125 C114.27152699 254.50483194 110.48888442 258.59659453 104.3125 262.375 C103.69221924 262.76550537 103.07193848 263.15601074 102.43286133 263.55834961 C98.8748495 265.7871055 95.26539614 267.90834382 91.625 270 C88.18048811 272.01302643 85.48467575 274.2232134 82.625 277 C77.45201174 281.81400864 71.57055501 283.79028771 64.9375 285.9375 C63.25720703 286.49824219 63.25720703 286.49824219 61.54296875 287.0703125 C60.68316406 287.35648437 59.82335937 287.64265625 58.9375 287.9375 C59.2675 289.9175 59.5975 291.8975 59.9375 293.9375 C60.80375 294.185 61.67 294.4325 62.5625 294.6875 C67.04415649 296.34737278 70.54013465 298.73881437 74.15771484 301.84204102 C77.36277811 304.25808335 80.72382472 305.92648092 84.3515625 307.58984375 C85.0707637 307.92633438 85.7899649 308.26282501 86.53096008 308.60951233 C88.07241829 309.3298978 89.61527471 310.04729768 91.15939331 310.76196289 C93.58824953 311.8869263 96.01256749 313.02116208 98.43579102 314.15820312 C104.63934725 317.0678858 110.84834959 319.96582183 117.06103516 322.85595703 C140.45745125 333.75326689 159.68591619 343.09026899 169.3190918 368.59545898 C170.73075303 372.62134588 172.02816556 376.68204387 173.3125 380.75 C173.54572968 381.47806854 173.77895935 382.20613708 174.01925659 382.95626831 C178.9763503 398.45010635 183.15285538 414.11776076 186.9375 429.9375 C187.15027588 430.81623779 187.36305176 431.69497559 187.58227539 432.6003418 C189.22653254 439.62726247 190.15205655 446.42167842 187.75 453.375 C184.06395761 458.58630131 180.59624196 460.27757886 174.54691803 461.53686476 C169.84974194 462.25804253 165.17411288 462.21177094 160.43101501 462.19146729 C159.30190927 462.19458727 158.17280352 462.19770725 157.00948244 462.20092177 C153.24186357 462.20887241 149.47440707 462.2025895 145.70678711 462.19628906 C142.99925912 462.19790041 140.29173793 462.20248974 137.58421326 462.20690918 C131.00339447 462.21578396 124.42262141 462.21388981 117.84180086 462.2080839 C112.49215647 462.20356025 107.14252486 462.20295754 101.7928791 462.20513153 C101.03040859 462.205438 100.26793808 462.20574446 99.48236241 462.20606022 C97.93325006 462.20669969 96.38413772 462.20734812 94.83502538 462.2080054 C80.32287928 462.21370298 65.81075848 462.20715958 51.29861654 462.19640467 C38.85458261 462.18746787 26.41058599 462.18902336 13.96655273 462.19824219 C-0.49654757 462.20895182 -14.95962572 462.2131556 -29.42272943 462.20701766 C-30.96571791 462.20638058 -32.50870639 462.20575184 -34.05169487 462.20513153 C-35.19036564 462.2046687 -35.19036564 462.2046687 -36.35203986 462.20419653 C-41.69392273 462.2024718 -47.03579151 462.20537985 -52.3776722 462.21009064 C-58.88945608 462.21570709 -65.40119175 462.21416687 -71.91297013 462.20352915 C-75.23348134 462.19828297 -78.55384593 462.19727932 -81.87436676 462.20282745 C-85.47732414 462.20829249 -89.08005566 462.20143683 -92.68299866 462.19146729 C-93.72745858 462.19592873 -94.7719185 462.20039017 -95.84802872 462.20498681 C-102.71611768 462.1681267 -108.97678653 461.8828411 -114.9375 458.125 C-118.86369486 454.08332882 -119.37821237 450.45423675 -119.32397461 444.88452148 C-118.7270735 438.15698338 -116.83411182 431.59668454 -115.1875 425.0625 C-114.78282877 423.4296996 -114.37820719 421.7968869 -113.97363281 420.1640625 C-111.11057036 408.70258784 -108.03607739 397.30250605 -104.8125 385.9375 C-104.61062073 385.22064026 -104.40874146 384.50378052 -104.20074463 383.76519775 C-101.61386665 374.62106276 -98.64182879 365.74815548 -95.0625 356.9375 C-94.4025 356.9375 -93.7425 356.9375 -93.0625 356.9375 C-92.81113281 356.21046875 -92.55976563 355.4834375 -92.30078125 354.734375 C-84.02566869 336.04358449 -59.70810196 328.07304714 -42.13671875 321.21655273 C-33.88514287 317.95815362 -25.85971518 314.23972757 -17.84399414 310.44238281 C-16.87324951 309.98702148 -15.90250488 309.53166016 -14.90234375 309.0625 C-13.60864868 308.44761719 -13.60864868 308.44761719 -12.28881836 307.8203125 C-10.0625 306.9375 -10.0625 306.9375 -7.0625 306.9375 C-6.80855469 306.34066406 -6.55460937 305.74382812 -6.29296875 305.12890625 C-3.57197227 300.28294109 1.80630352 297.23977755 6.875 295.25 C7.885625 294.816875 8.89625 294.38375 9.9375 293.9375 C10.2675 292.9475 10.5975 291.9575 10.9375 290.9375 C10.133125 290.5971875 10.133125 290.5971875 9.3125 290.25 C6.9375 288.9375 6.9375 288.9375 4.23828125 286.53125 C1.0133057 283.80821043 -2.2533211 282.51899443 -6.25 281.125 C-17.0148434 277.10276664 -24.88719183 270.84684098 -32.0625 261.9375 C-32.93445314 260.90886779 -33.80971835 259.88303797 -34.6875 258.859375 C-39.37595322 253.38750208 -43.98835453 247.88556397 -48.33203125 242.1328125 C-49.94975924 239.99920574 -49.94975924 239.99920574 -51.51171875 238.46020508 C-55.96763781 233.77809379 -57.38361545 229.68619369 -58.4375 223.375 C-58.67871582 222.06740723 -58.67871582 222.06740723 -58.92480469 220.73339844 C-60.18424638 213.42111759 -60.50461053 206.3551323 -60.0625 198.9375 C-60.619375 199.1540625 -61.17625 199.370625 -61.75 199.59375 C-69.00017486 202.23908407 -74.46751217 203.21114381 -81.75 200.25 C-87.08560404 197.65107411 -90.78423554 193.84164225 -94.0625 188.9375 C-96.24700842 182.17085196 -96.79289859 175.58065729 -94.0625 168.9375 C-90.52220955 162.13965063 -85.3105355 158.3267098 -78.0625 155.9375 C-76.39613832 155.90561671 -74.72877633 155.90143116 -73.0625 155.9375 C-73.65576396 151.04068786 -74.27704337 146.14854398 -74.92407227 141.25854492 C-75.14006733 139.59611099 -75.34849707 137.93267531 -75.54907227 136.26831055 C-75.83947259 133.86981895 -76.15729149 131.47629944 -76.48046875 129.08203125 C-76.56403122 128.3422554 -76.64759369 127.60247955 -76.73368835 126.84028625 C-77.47660425 121.62299478 -79.18239211 119.38129054 -83.0625 115.9375 C-83.55078125 113.26171875 -83.55078125 113.26171875 -83.375 110.625 C-83.32988281 109.74199219 -83.28476563 108.85898438 -83.23828125 107.94921875 C-83.15126953 106.95341797 -83.15126953 106.95341797 -83.0625 105.9375 C-84.238125 105.5353125 -84.238125 105.5353125 -85.4375 105.125 C-88.0625 103.9375 -88.0625 103.9375 -90.0625 100.9375 C-89.90079824 97.21835943 -89.60455961 95.47955961 -86.9375 92.8125 C-84.25638808 88.70146172 -85.30491866 85.60799881 -85.90234375 80.875 C-86.06088962 77.96703679 -85.8439847 76.61407843 -84.5625 74.0625 C-82.36604379 69.48654957 -83.51832859 66.57001424 -85.0625 61.9375 C-85.60413704 55.88574774 -85.46321215 51.16002223 -82.0625 45.9375 C-81.381875 45.133125 -80.70125 44.32875 -80 43.5 C-77.84640599 40.99226823 -77.84640599 40.99226823 -77.1875 37.5625 C-75.80480624 33.10715344 -73.62872002 29.9576959 -70.0625 26.9375 C-68.73178719 26.59385438 -67.39874069 26.2589805 -66.0625 25.9375 C-65.35002268 24.2898962 -64.68849617 22.61986471 -64.0625 20.9375 C-61.28597314 17.65049062 -59.09012428 16.29723615 -54.9375 15.25 C-53.97714844 15.00765625 -53.01679688 14.7653125 -52.02734375 14.515625 C-48.37062917 13.80258975 -44.7797146 13.53071315 -41.05859375 13.44140625 C-40.39988281 13.27511719 -39.74117188 13.10882813 -39.0625 12.9375 C-37.98895638 11.06687893 -37.98895638 11.06687893 -37.0625 8.9375 C-34.31042804 6.43883081 -31.81674256 5.38114213 -28.25 4.4375 C-25.13704347 3.56770332 -22.19595937 2.64335007 -19.25 1.3125 C-12.87949969 -1.43555896 -6.70917463 -1.89495772 0 0 Z " fill="#77113D" transform="translate(221.0625,26.0625)"/>
<path d="M0 0 C4.24887712 1.167003 7.52866667 0.64813196 11.73828125 -0.59375 C14.48460602 -1.1791123 17.06770932 -1.23229955 19.875 -1.25 C20.89464844 -1.26417969 21.91429687 -1.27835938 22.96484375 -1.29296875 C26.04024465 -1.05453425 28.10272903 -0.21258141 30.9375 0.9375 C33.66349431 1.21415227 33.66349431 1.21415227 36.4375 1.125 C37.3553125 1.11855469 38.273125 1.11210937 39.21875 1.10546875 C41.89546371 1.00567629 41.89546371 1.00567629 44.3046875 0.44189453 C57.25447825 -2.03902792 73.65408557 -1.6789488 84.80078125 5.87890625 C87.26845963 7.81805149 89.60208209 9.8429355 91.9375 11.9375 C93.96851158 13.72297391 93.96851158 13.72297391 95.9375 14.9375 C96.659375 14.64875 97.38125 14.36 98.125 14.0625 C102.28739301 12.3975428 105.69496768 12.48110831 109.9375 13.9375 C114.24450724 17.11527509 118.05421173 20.47828776 118.9375 25.9375 C119.65035156 25.97488281 120.36320313 26.01226562 121.09765625 26.05078125 C133.81697635 26.9238436 133.81697635 26.9238436 138.6484375 31.58984375 C140.48299962 34.93097052 139.90504347 37.42713386 139.5625 41.1875 C139.34018577 45.30702745 139.37849735 48.16873188 141.89453125 51.62890625 C144.1603114 53.56641589 146.4822906 55.25273438 148.9375 56.9375 C150.16075331 59.38400661 150.07068057 61.02177851 150.0625 63.75 C150.06056641 65.09578125 150.06056641 65.09578125 150.05859375 66.46875 C149.9375 68.9375 149.9375 68.9375 149.125 71.75 C149.063125 72.471875 149.00125 73.19375 148.9375 73.9375 C149.7625 74.741875 150.5875 75.54625 151.4375 76.375 C152.2625 77.220625 153.0875 78.06625 153.9375 78.9375 C153.625 82.125 153.625 82.125 152.9375 84.9375 C153.5975 85.5975 154.2575 86.2575 154.9375 86.9375 C155.42087545 89.97585998 155.52843686 92.02741605 153.81640625 94.6640625 C152.58208637 96.13965171 151.26424117 97.54442177 149.9375 98.9375 C151.0821875 99.0303125 151.0821875 99.0303125 152.25 99.125 C154.9375 99.9375 154.9375 99.9375 156.9375 102 C158.12963239 105.50188888 157.61579913 107.40452253 156.16796875 110.76171875 C154.33223895 114.00775525 152.01571022 116.77110601 149.55859375 119.56640625 C144.98082854 126.26207729 145.11654103 135.05200898 144.3125 142.875 C144.1784375 144.13119141 144.044375 145.38738281 143.90625 146.68164062 C143.57783567 149.76638947 143.25509376 152.85162153 142.9375 155.9375 C136.4375 158.9375 136.4375 158.9375 131.9375 158.9375 C131.999375 160.071875 132.06125 161.20625 132.125 162.375 C132.1336365 167.22007734 130.92946086 171.53325627 128.9375 175.9375 C128.2775 176.5975 127.6175 177.2575 126.9375 177.9375 C125.6175 177.9375 124.2975 177.9375 122.9375 177.9375 C121.67512269 175.41274538 121.83893596 173.62549534 121.875 170.8125 C121.88402344 169.90242187 121.89304687 168.99234375 121.90234375 168.0546875 C121.91974609 167.00667969 121.91974609 167.00667969 121.9375 165.9375 C121.30328125 165.82277344 120.6690625 165.70804688 120.015625 165.58984375 C119.32984375 165.37457031 118.6440625 165.15929687 117.9375 164.9375 C115.62351934 160.4252377 115.84579178 156.22717508 116.16015625 151.3046875 C115.88342449 148.36259197 114.73107968 147.2290401 112.9375 144.9375 C112.38742349 139.16169663 112.92022084 136.8748659 115.9375 131.9375 C115.35805068 129.93886244 115.35805068 129.93886244 113.9375 127.9375 C111.22812371 122.51874742 110.62581004 118.85960915 110.9375 112.9375 C110.15375 112.875625 109.37 112.81375 108.5625 112.75 C107.69625 112.481875 106.83 112.21375 105.9375 111.9375 C104.625 109.375 104.625 109.375 103.9375 106.9375 C102.885625 107.02 101.83375 107.1025 100.75 107.1875 C96.21617054 106.89019971 95.15828917 106.03598072 91.9375 102.9375 C90.13671875 99.921875 90.13671875 99.921875 88.625 96.6875 C88.11324219 95.60984375 87.60148438 94.5321875 87.07421875 93.421875 C86.69910156 92.60203125 86.32398438 91.7821875 85.9375 90.9375 C85.195 91.411875 84.4525 91.88625 83.6875 92.375 C79.07021 94.99846023 75.48035952 95.0529286 70.1875 95 C69.01703125 94.99097656 67.8465625 94.98195313 66.640625 94.97265625 C65.30257812 94.95525391 65.30257812 94.95525391 63.9375 94.9375 C63.9375 96.2575 63.9375 97.5775 63.9375 98.9375 C58.63075152 102.28913062 54.02640617 102.55550878 47.9375 101.9375 C44.8125 100.9375 44.8125 100.9375 42.9375 99.9375 C42.855 100.845 42.7725 101.7525 42.6875 102.6875 C41.81699417 106.45969194 40.99519172 107.62357113 37.9375 109.9375 C32.82573723 112.37167275 27.48473081 112.85043338 21.9375 111.9375 C16.6015913 109.81873479 11.70884916 107.11839944 6.9375 103.9375 C6.133125 104.948125 5.32875 105.95875 4.5 107 C2.84375 108.6875 2.84375 108.6875 0.9375 109.9375 C-1.42215883 109.9375 -3.50491366 109.49903053 -5.81640625 109.04296875 C-9.27789173 108.88042943 -11.02114014 110.5200922 -13.5546875 112.7109375 C-16.83668446 115.3807485 -20.66036364 115.31790798 -24.69921875 115.3046875 C-28.72044423 114.67990205 -31.00612151 112.53867318 -34.0625 109.9375 C-34.10375 110.700625 -34.145 111.46375 -34.1875 112.25 C-35.0625 114.9375 -35.0625 114.9375 -37.8125 116.75 C-40.87133657 117.86765182 -42.85498634 118.22051591 -46.0625 117.9375 C-45.7325 118.5975 -45.4025 119.2575 -45.0625 119.9375 C-44.53346345 124.83759265 -44.14252036 128.68298231 -47.125 132.75 C-47.764375 133.471875 -48.40375 134.19375 -49.0625 134.9375 C-48.98657413 138.05046057 -48.41351781 139.48819721 -46.5 141.9375 C-44.6401401 144.52513117 -44.65691656 145.80130244 -45.0625 148.9375 C-46.77734375 150.75390625 -46.77734375 150.75390625 -49 152.5 C-52.7680215 155.96393556 -53.6162246 158.14842781 -53.875 163.25 C-53.86082031 164.25675781 -53.84664062 165.26351562 -53.83203125 166.30078125 C-54.0625 168.9375 -54.0625 168.9375 -55.44921875 170.796875 C-57.0625 171.9375 -57.0625 171.9375 -59.0625 171.875 C-61.74574274 170.61722997 -62.54780125 169.50590223 -64.0625 166.9375 C-64.53222121 165.5663485 -64.98968738 164.1909623 -65.4375 162.8125 C-66.59686223 159.42736938 -66.59686223 159.42736938 -69.6875 157.5 C-70.47125 157.314375 -71.255 157.12875 -72.0625 156.9375 C-74.06741466 154.93258534 -73.75035566 151.11688838 -74.078125 148.359375 C-74.27890884 146.79023128 -74.48076641 145.22122464 -74.68359375 143.65234375 C-75.00071263 141.17371909 -75.31161045 138.69505003 -75.60400391 136.21337891 C-75.88833861 133.82162229 -76.19970897 131.43463868 -76.515625 129.046875 C-76.59605042 128.31023621 -76.67647583 127.57359741 -76.75933838 126.81463623 C-77.48107127 121.60071489 -79.18854824 119.37621994 -83.0625 115.9375 C-83.55078125 113.26171875 -83.55078125 113.26171875 -83.375 110.625 C-83.32988281 109.74199219 -83.28476563 108.85898438 -83.23828125 107.94921875 C-83.18027344 107.28535156 -83.12226563 106.62148437 -83.0625 105.9375 C-83.84625 105.669375 -84.63 105.40125 -85.4375 105.125 C-88.0625 103.9375 -88.0625 103.9375 -90.0625 100.9375 C-89.90079824 97.21835943 -89.60455961 95.47955961 -86.9375 92.8125 C-84.25638808 88.70146172 -85.30491866 85.60799881 -85.90234375 80.875 C-86.06088962 77.96703679 -85.8439847 76.61407843 -84.5625 74.0625 C-82.36604379 69.48654957 -83.51832859 66.57001424 -85.0625 61.9375 C-85.60413704 55.88574774 -85.46321215 51.16002223 -82.0625 45.9375 C-81.381875 45.133125 -80.70125 44.32875 -80 43.5 C-77.84640599 40.99226823 -77.84640599 40.99226823 -77.1875 37.5625 C-75.80480624 33.10715344 -73.62872002 29.9576959 -70.0625 26.9375 C-68.73178719 26.59385438 -67.39874069 26.2589805 -66.0625 25.9375 C-65.35002268 24.2898962 -64.68849617 22.61986471 -64.0625 20.9375 C-61.28597314 17.65049062 -59.09012428 16.29723615 -54.9375 15.25 C-53.49697266 14.88648438 -53.49697266 14.88648438 -52.02734375 14.515625 C-48.37062917 13.80258975 -44.7797146 13.53071315 -41.05859375 13.44140625 C-40.39988281 13.27511719 -39.74117187 13.10882813 -39.0625 12.9375 C-37.98895638 11.06687893 -37.98895638 11.06687893 -37.0625 8.9375 C-34.31042804 6.43883081 -31.81674256 5.38114213 -28.25 4.4375 C-25.13704347 3.56770332 -22.19595937 2.64335007 -19.25 1.3125 C-12.87949969 -1.43555896 -6.70917463 -1.89495772 0 0 Z " fill="#000000" transform="translate(221.0625,26.0625)"/>
<path d="M0 0 C2.26534317 3.39801475 3.87821089 6.9230894 5.5859375 10.625 C7.1304487 13.21909616 8.408723 14.47571941 11 16 C12.175625 16.12375 13.35125 16.2475 14.5625 16.375 C15.696875 16.58125 16.83125 16.7875 18 17 C19.6875 19.5 19.6875 19.5 21 22 C23.03363658 22.68969114 23.03363658 22.68969114 25 23 C25.10957031 23.65226562 25.21914063 24.30453125 25.33203125 24.9765625 C26.27499703 30.17437388 27.53338089 34.29099989 30 39 C30 43 30 43 29 44.75 C27.50905751 48.1046206 27.5016941 51.417975 28 55 C28.495 55.804375 28.99 56.60875 29.5 57.4375 C31.43163528 60.73737693 31.10924291 63.03754994 30.984375 66.77734375 C31.00595404 69.84696285 31.68824495 72.23841043 33 75 C33.99 75.33 34.98 75.66 36 76 C36.33 79.96 36.66 83.92 37 88 C41.88254708 86.63801056 41.88254708 86.63801056 43.109375 84.1171875 C43.32078125 83.37726563 43.5321875 82.63734375 43.75 81.875 C43.97816406 81.07964844 44.20632813 80.28429687 44.44140625 79.46484375 C45.23184286 75.97697309 45.67622709 72.56150203 46 69 C53.33926995 66.33801069 59.02072042 64.71992585 66.3203125 68.0625 C72.54228372 71.67658229 75.98054502 76.08725026 78 83 C78.92915784 89.43773649 78.75954473 95.48804089 75.39453125 101.18359375 C71.0165088 106.88605996 66.23268529 110.83760415 59 112 C53.23231935 112.61796578 49.09645158 111.80824883 44 109 C43.67 108.01 43.34 107.02 43 106 C42.34 105.67 41.68 105.34 41 105 C40.80664062 105.66386719 40.61328125 106.32773438 40.4140625 107.01171875 C40.15367187 107.89472656 39.89328125 108.77773437 39.625 109.6875 C39.36976563 110.55761719 39.11453125 111.42773438 38.8515625 112.32421875 C38 115 38 115 36.953125 117.4921875 C35.93715071 120.16536574 35.51810795 122.60952953 35.125 125.4375 C34.26680705 130.21520103 33.38810856 133.3577833 30 137 C28.39061798 137.92359724 26.76349243 138.81658961 25.125 139.6875 C19.8000669 142.62755117 17.85429237 146.02633002 15.44921875 151.51171875 C13.43822623 154.96455496 10.85479985 156.29645523 7.1875 157.6875 C2.45058902 158.36420157 -1.45696897 158.63733891 -5.875 156.8125 C-8.35614378 154.6962303 -8.80658206 152.98354486 -10 150 C-11.63064764 148.94228261 -13.30280873 147.94726954 -15 147 C-15.63679687 146.15566406 -16.27359375 145.31132812 -16.9296875 144.44140625 C-21.5807001 140.74308198 -26.03835847 141.37121076 -31.8125 141.4375 C-39.71978906 141.5002946 -45.15902994 141.16729781 -52 137 C-51.01 140.63 -50.02 144.26 -49 148 C-46.586875 148.433125 -46.586875 148.433125 -44.125 148.875 C-40.22561902 149.5862713 -36.32857352 150.30700689 -32.4375 151.0625 C-31.22900391 151.29646484 -31.22900391 151.29646484 -29.99609375 151.53515625 C-28 152 -28 152 -26 153 C-26.74452923 160.63142462 -30.28472456 166.08220486 -36 171 C-39.8578114 173.71377078 -43.14867386 175.58803953 -48 175 C-48.5625 172.375 -48.5625 172.375 -48 169 C-45.80525328 167.18410837 -43.54172052 165.80069569 -41.06640625 164.39453125 C-38.69451917 163.09934297 -38.69451917 163.09934297 -38 160 C-39.52367187 160.2165625 -39.52367187 160.2165625 -41.078125 160.4375 C-62.08175799 163.31257068 -62.08175799 163.31257068 -70 161 C-66.585469 164.53705325 -66.585469 164.53705325 -62.6875 167.5 C-61 169 -61 169 -60.75 171.6875 C-60.8325 172.450625 -60.915 173.21375 -61 174 C-62.98 174.99 -62.98 174.99 -65 176 C-70.79697098 172.74804067 -74.17403439 168.36791649 -78 163 C-78.99 161.63875 -78.99 161.63875 -80 160.25 C-81 158 -81 158 -81.0625 155.4375 C-79.89210824 152.7524836 -78.64757505 151.36065411 -76.14453125 149.83203125 C-72.29206531 148.33735867 -68.21226299 148.07300476 -64.12109375 147.6875 C-60.43962174 146.87656248 -58.6725374 145.62464246 -56 143 C-54.65227097 139.87866256 -54.65227097 139.87866256 -54 137 C-55.44632813 137.98226562 -55.44632813 137.98226562 -56.921875 138.984375 C-61.37711455 141.53214515 -65.23614833 141.35048806 -70.25 141.25 C-77.91650859 141.38580799 -82.82905166 142.50488554 -88.8203125 147.65625 C-92.069252 151.14973333 -94.70694261 154.82024983 -97 159 C-101.68448915 158.53155109 -104.93807794 157.08713823 -108.9921875 154.8828125 C-111.178536 153.7736872 -111.178536 153.7736872 -114.5625 153.875 C-119.42365933 152.63761399 -120.87613797 150.05134207 -123.51953125 145.92578125 C-125.43145267 142.14734024 -126.20780879 138.48878566 -127.05859375 134.36328125 C-129.18523181 126.76562412 -133.2128283 119.10462341 -137.64453125 112.578125 C-139.56875211 108.91822366 -140.06498667 105.24574267 -140.6875 101.1875 C-140.81705078 100.39923828 -140.94660156 99.61097656 -141.08007812 98.79882812 C-141.39612969 96.86740187 -141.69936289 94.93388555 -142 93 C-142.14695313 94.04800781 -142.29390625 95.09601563 -142.4453125 96.17578125 C-142.67047742 97.5549164 -142.89711757 98.93381127 -143.125 100.3125 C-143.26421875 101.34793945 -143.26421875 101.34793945 -143.40625 102.40429688 C-143.7578125 104.42578125 -143.7578125 104.42578125 -145 108 C-148 109.9375 -148 109.9375 -151 111 C-151.61875 111.226875 -152.2375 111.45375 -152.875 111.6875 C-160.28531158 112.7772517 -165.55164598 111.80983058 -172 108 C-178.80697602 102.08089042 -181.28380446 96.93423587 -182 88 C-181.68286834 81.17620145 -178.96026395 75.67565864 -174 71 C-169.10404996 67.72543601 -164.01391433 64.90656103 -158 66 C-154.875 66.875 -154.875 66.875 -152 69 C-150.71773564 71.52681507 -149.75865068 74.03666177 -148.859375 76.72265625 C-148.1204281 79.154186 -148.1204281 79.154186 -146 81 C-143.21762345 80.59471099 -143.21762345 80.59471099 -141 79 C-140.97330108 77.14590852 -140.95374467 75.29171255 -140.9375 73.4375 C-140.60225518 68.29301579 -139.74093142 66.10296637 -135.875 62.6875 C-135.15441406 62.06746094 -134.43382812 61.44742188 -133.69140625 60.80859375 C-131.5931711 58.95514183 -131.5931711 58.95514183 -131.8125 55.25 C-132.90675495 52.25519697 -134.10795583 50.49405822 -136 48 C-135.83483245 45.35731928 -135.21678958 44.24368246 -133.45703125 42.265625 C-131.5365079 39.27928843 -131.69781435 37.26702659 -131.8125 33.75 C-131.83957031 32.67234375 -131.86664063 31.5946875 -131.89453125 30.484375 C-131.94673828 29.25460938 -131.94673828 29.25460938 -132 28 C-130.95199219 27.76216797 -130.95199219 27.76216797 -129.8828125 27.51953125 C-124.17712948 26.31216721 -124.17712948 26.31216721 -120.375 22.3125 C-120.25125 21.549375 -120.1275 20.78625 -120 20 C-117.50638429 21.20381448 -115.31856917 22.45428722 -113 24 C-106.69522489 25.20271814 -102.25501472 23.53138022 -96.9453125 20.19140625 C-95 19 -95 19 -92 18 C-90.9275 18.268125 -89.855 18.53625 -88.75 18.8125 C-84.53696495 19.02315175 -84.0849858 18.68648362 -81.0625 16.0625 C-80.02356309 15.06009714 -78.99631921 14.04477242 -78 13 C-77.0409375 13.86625 -77.0409375 13.86625 -76.0625 14.75 C-69.14235395 19.83418894 -62.62436295 22.16892192 -54 21 C-50.11437232 20.05228593 -47.58245569 18.77660758 -45.125 15.5 C-43.92820667 12.95283869 -43.92820667 12.95283869 -43 10 C-42.38125 10.165 -41.7625 10.33 -41.125 10.5 C-34.50248932 11.55960171 -28.263071 11.63708253 -22 9 C-22 7.68 -22 6.36 -22 5 C-20.7315625 4.94392578 -20.7315625 4.94392578 -19.4375 4.88671875 C-9.00711283 4.63450971 -9.00711283 4.63450971 0 0 Z " fill="#FCD7AC" transform="translate(307,116)"/>
<path d="M0 0 C2.26534317 3.39801475 3.87821089 6.9230894 5.5859375 10.625 C7.1304487 13.21909616 8.408723 14.47571941 11 16 C12.175625 16.12375 13.35125 16.2475 14.5625 16.375 C15.696875 16.58125 16.83125 16.7875 18 17 C19.6875 19.5 19.6875 19.5 21 22 C23.03363658 22.68969114 23.03363658 22.68969114 25 23 C25.10957031 23.65226562 25.21914063 24.30453125 25.33203125 24.9765625 C26.27499703 30.17437388 27.53338089 34.29099989 30 39 C30 43 30 43 29 44.75 C27.51028236 48.1018647 27.4928045 51.42105711 28 55 C28.98879205 56.67334039 29.98648336 58.34151823 31 60 C30.0859375 62.140625 30.0859375 62.140625 29 64 C16.93343655 65.2358358 16.93343655 65.2358358 12.48828125 62.39453125 C11.05780417 60.98520725 9.64536328 59.55737964 8.25 58.11328125 C2.13322744 52.36818758 -5.44048212 50.69326618 -13.625 50.4375 C-24.3073679 50.87307056 -31.06948635 54.13754205 -38.796875 61.48828125 C-45.14180062 68.72194645 -47.02326623 76.39738814 -47.5625 85.75 C-47.60568359 86.44738281 -47.64886719 87.14476562 -47.69335938 87.86328125 C-47.79889596 89.57531922 -47.8998991 91.28763561 -48 93 C-51.96 93 -55.92 93 -60 93 C-60.02578125 91.94941406 -60.0515625 90.89882812 -60.078125 89.81640625 C-60.36184733 81.85320286 -60.66721169 74.92968387 -65 68 C-65.4228125 67.30519531 -65.845625 66.61039062 -66.28125 65.89453125 C-69.9293748 60.49327981 -74.33234099 57.13675611 -80 54 C-80.60328125 53.65839844 -81.2065625 53.31679687 -81.828125 52.96484375 C-88.94275671 49.63952675 -98.20759444 49.76707008 -105.6875 51.69140625 C-111.39777266 54.06077286 -117.42416479 57.85909553 -121.37109375 62.671875 C-123.76837906 64.62649611 -125.65203096 64.2946342 -128.6875 64.1875 C-129.68136719 64.16042969 -130.67523438 64.13335937 -131.69921875 64.10546875 C-132.45847656 64.07066406 -133.21773437 64.03585938 -134 64 C-133.125 60.125 -133.125 60.125 -132 59 C-132.36002443 54.22967636 -133.16159159 51.74153836 -136 48 C-135.83483245 45.35731928 -135.21678958 44.24368246 -133.45703125 42.265625 C-131.5365079 39.27928843 -131.69781435 37.26702659 -131.8125 33.75 C-131.83957031 32.67234375 -131.86664063 31.5946875 -131.89453125 30.484375 C-131.92933594 29.66453125 -131.96414062 28.8446875 -132 28 C-131.30132812 27.84144531 -130.60265625 27.68289062 -129.8828125 27.51953125 C-124.17712948 26.31216721 -124.17712948 26.31216721 -120.375 22.3125 C-120.25125 21.549375 -120.1275 20.78625 -120 20 C-117.50638429 21.20381448 -115.31856917 22.45428722 -113 24 C-106.69522489 25.20271814 -102.25501472 23.53138022 -96.9453125 20.19140625 C-95 19 -95 19 -92 18 C-90.9275 18.268125 -89.855 18.53625 -88.75 18.8125 C-84.53696495 19.02315175 -84.0849858 18.68648362 -81.0625 16.0625 C-80.02356309 15.06009714 -78.99631921 14.04477242 -78 13 C-77.0409375 13.86625 -77.0409375 13.86625 -76.0625 14.75 C-69.14235395 19.83418894 -62.62436295 22.16892192 -54 21 C-50.11437232 20.05228593 -47.58245569 18.77660758 -45.125 15.5 C-43.92820667 12.95283869 -43.92820667 12.95283869 -43 10 C-42.38125 10.165 -41.7625 10.33 -41.125 10.5 C-34.50248932 11.55960171 -28.263071 11.63708253 -22 9 C-22 7.68 -22 6.36 -22 5 C-21.154375 4.96261719 -20.30875 4.92523438 -19.4375 4.88671875 C-9.00711283 4.63450971 -9.00711283 4.63450971 0 0 Z " fill="#FDD8AD" transform="translate(307,116)"/>
<path d="M0 0 C0.33 0 0.66 0 1 0 C1.16435547 1.25103516 1.16435547 1.25103516 1.33203125 2.52734375 C2.87130393 13.45242547 5.47683389 21.56707152 11.13134766 31.04077148 C14.04227117 35.92109294 15.9778988 40.12469123 16.75 45.75 C17.84977404 51.35800807 19.84108507 55.98296703 24 60 C26.26968266 60.92717166 28.26645828 61.29897797 30.6953125 61.6015625 C33.25458599 62.04401317 34.99480489 62.91948464 37.25 64.1875 C39.70153072 65.47163514 40.93530562 65.99558902 43.75 66.1875 C46.58655759 64.69042794 47.23386621 62.84664987 48.62890625 60.05078125 C51.71274278 55.43820524 57.04821472 51.47589264 62 49 C63.38888396 48.88421486 64.78245766 48.82153118 66.17578125 48.7890625 C67.00400391 48.76070313 67.83222656 48.73234375 68.68554688 48.703125 C70.42492441 48.6513963 72.16453755 48.60702182 73.90429688 48.5703125 C78.81165066 48.38785473 81.90451675 47.96269001 86 45 C86.66 45 87.32 45 88 45 C87.81934633 48.8840538 87.23641613 50.71104695 84.75 53.75 C80.71795405 56.83275358 75.98030003 56.88824754 71.08203125 57.46484375 C67.10026358 58.156228 65.02882632 59.40386316 62 62 C62.77439815 69.60930361 67.22444573 75.49292959 72.7578125 80.6328125 C74.42434855 81.90370786 74.42434855 81.90370786 77 83 C77.99 82.67 78.98 82.34 80 82 C80.3343772 79.634144 80.3343772 79.634144 80 77 C78.2766221 75.17835779 78.2766221 75.17835779 76 73.8125 C74.63838263 72.91657468 73.29696606 71.98719961 72 71 C72 70.34 72 69.68 72 69 C72.969375 69.01160156 73.93875 69.02320313 74.9375 69.03515625 C84.66831329 69.11347265 94.2970481 68.72256025 104 68 C103.75 69.8515625 103.75 69.8515625 103 72 C101.1875 73.2734375 101.1875 73.2734375 99 74.375 C95.4266682 76.38073006 95.4266682 76.38073006 94 80.3125 C94 81.199375 94 82.08625 94 83 C102.5603546 80.37034859 108.44425147 78.02504127 113 70 C113.59228007 68.43480468 114.14211083 66.85288785 114.6484375 65.2578125 C114.90544434 64.45746582 115.16245117 63.65711914 115.42724609 62.83251953 C115.61625488 62.22778809 115.80526367 61.62305664 116 61 C115.12263184 60.89510254 115.12263184 60.89510254 114.22753906 60.78808594 C111.56583403 60.45972804 108.90825496 60.1051663 106.25 59.75 C105.32960938 59.64042969 104.40921875 59.53085937 103.4609375 59.41796875 C96.61221832 58.47502915 96.61221832 58.47502915 93.4375 56.01171875 C90.69754917 52.1772767 89.73446858 49.77956559 90 45 C92.14388153 45.45940319 93.88459094 45.93430031 95.79907227 47.02416992 C98.4963579 48.22007127 100.51981285 48.23952651 103.46484375 48.23828125 C105.03588867 48.26245117 105.03588867 48.26245117 106.63867188 48.28710938 C108.83392553 48.30400594 111.02930038 48.30925639 113.22460938 48.30273438 C121.31383895 48.45686229 121.31383895 48.45686229 125.0546875 51.41796875 C125.69664062 52.27003906 126.33859375 53.12210937 127 54 C128.051875 54.66 129.10375 55.32 130.1875 56 C133.3281042 58.23331854 133.71166341 59.50308641 135 63 C137.94513671 65.37876427 141.20208174 65.35456316 144.90625 65.2578125 C149.7236457 64.66462572 153.81467388 62.70751073 157 59 C157.71802354 57.57750054 158.40350594 56.13828921 159.0625 54.6875 C161.15934716 50.72394745 163.12319489 49.04618686 167.0625 46.9375 C171.35856009 44.60115825 173.48222654 42.78423555 175.34765625 38.25390625 C176.3270413 34.87004292 176.83153284 31.44316133 177.36328125 27.96484375 C178.4940573 22.69945097 180.76841939 17.8805179 183 13 C183.99 13.33 184.98 13.66 186 14 C188.5576834 19.16408459 187.98390723 23.72954055 187.3125 29.25 C187.23322266 30.04535156 187.15394531 30.84070313 187.07226562 31.66015625 C185.8737615 42.33460308 182.29464694 50.98895436 177.0625 60.3125 C176.27456055 61.75592773 176.27456055 61.75592773 175.47070312 63.22851562 C171.35283945 70.67571589 167.7369636 75.93381603 160.375 80.4375 C159.75471924 80.82800537 159.13443848 81.21851074 158.49536133 81.62084961 C154.9373495 83.8496055 151.32789614 85.97084382 147.6875 88.0625 C144.24298811 90.07552643 141.54717575 92.2857134 138.6875 95.0625 C131.24178522 101.93143405 121.56093823 103.95504216 111.93359375 106.1796875 C107.83054642 107.32701099 104.10368889 109.05988644 100.27734375 110.9140625 C93.08895071 114.34180395 85.49705346 113.05796425 77.8125 112.1875 C77.13550049 112.11748779 76.45850098 112.04747559 75.76098633 111.9753418 C69.86439336 111.25028568 65.18316506 109.52315628 61.0625 105.1875 C57.67674819 102.13206544 53.9733551 100.67533224 49.75 99.125 C38.99773576 95.11759095 31.16769937 88.89989339 24 80 C23.12804686 78.97136779 22.25278165 77.94553797 21.375 76.921875 C16.68654678 71.45000208 12.07414547 65.94806397 7.73046875 60.1953125 C6.11233168 58.06174267 6.11233168 58.06174267 4.55078125 56.52050781 C0.11520575 51.85503968 -1.32341128 47.78834313 -2.375 41.5 C-2.53363525 40.61997314 -2.69227051 39.73994629 -2.85571289 38.83325195 C-5.04066617 25.86134333 -4.36034596 13.71011684 -1 1 C-0.67 0.67 -0.34 0.34 0 0 Z " fill="#020201" transform="translate(165,208)"/>
<path d="M0 0 C0.495 2.97 0.495 2.97 1 6 C1.86625 6.2475 2.7325 6.495 3.625 6.75 C11.77939473 9.7701462 17.47850031 15.65542591 21.17578125 23.4921875 C23.19007491 29.62098622 22.64623675 35.34261343 20 41.1875 C15.68529356 48.88628992 9.81252297 53.11675628 1.6875 56.2734375 C-18.19987189 61.64996537 -44.36781034 59.55921736 -62.5 49.75 C-65.6798175 47.5736495 -67.4907803 45.37565075 -68.59765625 41.5703125 C-69.83051551 33.69437666 -70.6825972 24.66823359 -66.3203125 17.63671875 C-61.99372067 12.27328095 -57.21346424 9.32994889 -50.8203125 6.859375 C-48.81302911 6.1409734 -48.81302911 6.1409734 -48 4 C-46.73285156 4.144375 -45.46570313 4.28875 -44.16015625 4.4375 C-42.46096575 4.62525586 -40.76174537 4.81274139 -39.0625 5 C-38.23169922 5.09539062 -37.40089844 5.19078125 -36.54492188 5.2890625 C-24.86492328 6.63331961 -24.86492328 6.63331961 -13.6875 3.625 C-12.70136719 3.18414062 -11.71523438 2.74328125 -10.69921875 2.2890625 C-9.04400295 1.49858318 -7.40174385 0.67924185 -5.78515625 -0.1875 C-3.4920837 -1.23117416 -2.32290861 -0.82961022 0 0 Z " fill="#FED9AD" transform="translate(280,314)"/>
<path d="M0 0 C8.40854123 5.60569415 13.14954112 11.53544913 15.9921875 21.328125 C17.12864781 31.74127294 15.43208455 40.24877161 8.9921875 48.578125 C2.68713275 55.16429684 -4.91843602 58.63621056 -14.0078125 59.078125 C-22.61780414 58.66857894 -30.4006595 55.46310915 -36.4453125 49.203125 C-42.60347359 40.88869385 -45.47080291 31.59692434 -44.0078125 21.328125 C-41.94521606 12.6037264 -36.89088959 6.01411617 -29.79296875 0.65625 C-21.02166892 -4.53939516 -9.02585577 -4.8364963 0 0 Z " fill="#FED9AD" transform="translate(226.0078125,174.671875)"/>
<path d="M0 0 C6.66498701 5.24031506 10.53758336 12.1572966 11.8515625 20.52734375 C12.87341729 30.49461592 9.90974811 38.88752103 3.6953125 46.703125 C-2.46490122 52.79808222 -9.37157683 55.64480187 -17.8984375 55.77734375 C-26.95292566 55.66745918 -33.55845407 52.77693547 -40.1484375 46.52734375 C-46.4248469 39.15395129 -48.6534404 31.38095437 -48.40234375 21.7890625 C-47.33307066 12.26430684 -42.54191835 5.09781691 -35.265625 -0.92578125 C-24.62693745 -8.69869688 -10.46349768 -7.17225204 0 0 Z " fill="#FED9AD" transform="translate(312.1484375,177.47265625)"/>
<path d="M0 0 C9.28233217 5.50014804 15.91315156 13.12446375 18.72265625 23.61328125 C18.94457349 26.41226848 18.91360527 29.18291126 18.84765625 31.98828125 C18.83863281 32.72433594 18.82960938 33.46039063 18.8203125 34.21875 C18.79695769 36.01707005 18.76109461 37.81522036 18.72265625 39.61328125 C19.38265625 39.28328125 20.04265625 38.95328125 20.72265625 38.61328125 C24.39595589 38.47970672 27.22118584 38.44612445 30.72265625 39.61328125 C30.67625 38.65808594 30.62984375 37.70289063 30.58203125 36.71875 C30.26770282 25.45905666 31.39122339 17.12911529 38.97265625 8.23828125 C46.40867515 0.54584791 53.97153431 -3.62794054 64.84765625 -3.82421875 C74.68643256 -3.66023914 82.1659185 -1.22136248 89.09765625 5.86328125 C93.86734944 10.5536265 98.49862178 10.56610183 104.9765625 10.67578125 C105.88277344 10.65515625 106.78898438 10.63453125 107.72265625 10.61328125 C108.05265625 9.95328125 108.38265625 9.29328125 108.72265625 8.61328125 C109.05265625 11.58328125 109.38265625 14.55328125 109.72265625 17.61328125 C105.76265625 17.28328125 101.80265625 16.95328125 97.72265625 16.61328125 C98.4496875 18.07701172 98.4496875 18.07701172 99.19140625 19.5703125 C101.00878828 23.83623106 101.26153301 27.70348084 101.22265625 32.30078125 C101.21693604 33.08952637 101.21121582 33.87827148 101.20532227 34.69091797 C100.90543667 44.59623007 97.50549247 52.76916392 90.59375 59.93359375 C82.4045703 67.28504943 72.38156967 70.3201438 61.41796875 69.9609375 C52.73744846 68.84127619 44.68541243 64.28236202 39.03515625 57.625 C37.54841092 55.65134557 36.12771162 53.64559348 34.72265625 51.61328125 C32.1746151 48.05802887 32.1746151 48.05802887 28.72265625 45.61328125 C21.91582752 45.1851612 21.91582752 45.1851612 15.72265625 47.61328125 C15.45453125 48.45890625 15.18640625 49.30453125 14.91015625 50.17578125 C11.98089295 58.65522765 5.01872687 63.51692029 -2.6640625 67.51953125 C-11.90104509 71.38553293 -22.13444918 70.14728442 -31.27734375 66.61328125 C-40.39956841 62.07399242 -47.13237333 54.26644356 -50.62109375 44.6875 C-51.49303118 40.60288833 -51.67106281 36.65682206 -51.71484375 32.48828125 C-51.72507568 31.73619385 -51.73530762 30.98410645 -51.74584961 30.20922852 C-51.66052946 24.76246204 -50.41690941 20.61884335 -48.27734375 15.61328125 C-52.23734375 15.61328125 -56.19734375 15.61328125 -60.27734375 15.61328125 C-60.27734375 18.25328125 -60.27734375 20.89328125 -60.27734375 23.61328125 C-60.60734375 23.61328125 -60.93734375 23.61328125 -61.27734375 23.61328125 C-62.19752312 14.8374965 -62.19752312 14.8374965 -59.94140625 11.8359375 C-58.27734375 10.48828125 -58.27734375 10.48828125 -55.27734375 8.61328125 C-55.27734375 9.27328125 -55.27734375 9.93328125 -55.27734375 10.61328125 C-50.34579171 10.76076692 -45.97689069 10.79592777 -41.82421875 7.90625 C-40.33245763 6.50055202 -38.86213052 5.07176154 -37.4140625 3.62109375 C-27.36810719 -5.81879845 -11.83755554 -5.655898 0 0 Z M-38.65234375 11.80078125 C-44.52999615 19.01101882 -47.07469999 26.19575366 -46.7265625 35.5234375 C-45.5320342 43.73971475 -41.8465175 52.31207944 -35.27734375 57.61328125 C-27.04331296 63.25767793 -19.17502789 65.26475504 -9.27734375 63.61328125 C-0.11442664 60.62749008 6.25427016 55.64930839 11.03125 47.3359375 C14.88711976 39.10385569 15.20825214 29.94686944 12.22265625 21.36328125 C8.27846875 12.83605898 2.3567265 7.12544542 -6.27734375 3.61328125 C-18.32858746 -0.40379999 -30.02274223 2.87033123 -38.65234375 11.80078125 Z M42.4140625 12.4609375 C36.08746867 20.51163773 34.91153289 28.90096079 35.9609375 38.87890625 C37.57669597 48.2143996 42.9348122 54.8010327 50.51171875 60.23828125 C56.99198235 64.26840985 64.3038964 64.37029756 71.72265625 63.61328125 C79.64069322 61.63377201 86.01581964 57.83276184 90.44921875 50.921875 C95.6060992 41.74458302 97.32300833 33.87668213 94.59765625 23.48828125 C91.80527759 15.20205993 86.27836071 8.97447831 78.72265625 4.61328125 C65.6216327 -0.67055698 51.88732496 2.18388307 42.4140625 12.4609375 Z " fill="#9E9694" transform="translate(228.27734375,169.38671875)"/>
<path d="M0 0 C8.87682293 2.53623512 14.0332593 7.40907929 19 15 C21.74681833 20.82215978 22.13086337 26.4653945 20.16015625 32.625 C16.06354338 41.67341093 9.82947496 46.72165669 0.6875 50.2734375 C-19.19987189 55.64996537 -45.36781034 53.55921736 -63.5 43.75 C-66.6798175 41.5736495 -68.4907803 39.37565075 -69.59765625 35.5703125 C-70.82963837 27.69998011 -71.68753407 18.66482753 -67.3203125 11.640625 C-62.48731654 5.63512707 -57.41915022 2.91787557 -50 1 C-50.54085137 5.95029239 -52.08292484 9.47860498 -54.5 13.8125 C-55.1290625 14.95332031 -55.758125 16.09414063 -56.40625 17.26953125 C-58 20 -58 20 -59 21 C-59.39449853 25.02388498 -59.23277644 27.50535006 -57.5 31.1875 C-52.24469864 37.09971403 -44.41862855 39.61772679 -36.6418457 40.29052734 C-32.86504238 40.3400086 -29.08965091 40.37130596 -25.3125 40.375 C-23.3644043 40.41173828 -23.3644043 40.41173828 -21.37695312 40.44921875 C-11.03904233 40.48037268 0.03150911 39.31501565 7.7734375 31.6875 C9.46893822 29.35483658 10.27472984 27.07779606 10.40625 24.1953125 C9.72051183 20.48968895 7.69738956 17.70457729 5.63671875 14.6015625 C3.02001775 10.44231939 0 5.02538275 0 0 Z " fill="#9A9393" transform="translate(281,320)"/>
<path d="M0 0 C1.13805733 3.414172 0.86529183 3.97298219 -0.375 7.1875 C-1.92328794 11.50008284 -2.5858367 15.4442037 -3 20 C-2.34773438 19.7834375 -1.69546875 19.566875 -1.0234375 19.34375 C3.77521132 17.81497692 7.89921898 16.59730676 13 17 C11.50354144 21.35111591 9.16704499 24.86016438 6.5 28.5625 C1.72978474 35.23013315 -0.96939455 39.55415 0 48 C1.99234177 56.88629712 5.11385656 65.5294535 8.06884766 74.13452148 C10 79.79323252 10 79.79323252 10 82 C4.06 82 -1.88 82 -8 82 C-11.88585926 66.45656296 -11.23817654 48.49356299 -11.51828003 32.45443726 C-11.54740515 31.04366772 -11.58854844 29.63308718 -11.64260864 28.22305298 C-12.00713838 18.22172614 -10.5104742 11.73050916 -4 4 C-2.68663729 2.64699078 -1.35898142 1.3071821 0 0 Z " fill="#030001" transform="translate(362,404)"/>
<path d="M0 0 C3.78878256 1.48546982 5.37665051 3.53714194 7.625 6.875 C8.21539062 7.73867188 8.80578125 8.60234375 9.4140625 9.4921875 C12.16316644 13.83929275 13.25170891 16.53539036 13.23046875 21.76171875 C13.22853516 22.88126953 13.22660156 24.00082031 13.22460938 25.15429688 C13.20624023 26.90323242 13.20624023 26.90323242 13.1875 28.6875 C13.18685547 29.83412109 13.18621094 30.98074219 13.18554688 32.16210938 C13.15727559 37.64988015 12.97798807 43.01360169 12.28295898 48.45581055 C11.59594959 54.63296752 11.32192564 60.86000817 10.9375 67.0625 C10.84589884 68.51498631 10.7541035 69.9674604 10.66210938 71.41992188 C10.43880887 74.94646043 10.21949181 78.47321418 10 82 C4.06 82 -1.88 82 -8 82 C-6.41650821 74.21781423 -4.06825639 66.84788307 -1.47851562 59.34765625 C0.96789142 51.96168847 3.48744251 44.15818592 0.77734375 36.58203125 C0.17019531 35.66808594 -0.43695313 34.75414062 -1.0625 33.8125 C-2.02542969 32.32363281 -2.02542969 32.32363281 -3.0078125 30.8046875 C-5.23254698 27.67261033 -7.49073331 24.58696869 -9.93359375 21.62109375 C-11 20 -11 20 -11 17 C-5.48615274 17.59076935 -0.36929475 18.61255619 5 20 C4.72285156 18.89140625 4.44570312 17.7828125 4.16015625 16.640625 C2.7734375 11.09375 1.38671875 5.546875 0 0 Z " fill="#030001" transform="translate(150,404)"/>
<path d="M0 0 C3.11989469 2.98424709 3.94014492 4.281739 4.3125 8.75 C4.24840363 13.16463756 2.90882494 15.61947372 0 19 C-3.68823038 22.16134033 -7.07336507 22.51643606 -11.77734375 22.359375 C-15.23936543 21.79961051 -17.39780481 20.27692079 -20 18 C-20.33 17.01 -20.66 16.02 -21 15 C-20.20335937 14.62488281 -19.40671875 14.24976563 -18.5859375 13.86328125 C-11.11650135 10.25577985 -4.71359796 7.07039694 0 0 Z " fill="#FABA6B" transform="translate(323,223)"/>
<path d="M0 0 C0.66 0.70125 1.32 1.4025 2 2.125 C7.92416476 7.99924202 14.24953912 11.95005012 22 15 C20.24432972 18.81051307 18.95687077 20.31622521 15 22 C10.7976988 22.56437439 7.19196495 22.42380976 3.1875 21 C0.03000194 18.11314464 -1.77347981 15.10300207 -3 11 C-3.18289663 6.71717069 -2.40677137 3.61015706 0 0 Z " fill="#FBBA6B" transform="translate(182,223)"/>
<path d="M0 0 C0.66 0.33 1.32 0.66 2 1 C5.97528716 18.86425339 5.97528716 18.86425339 3.16015625 26.18359375 C2 28 2 28 -0.8125 28.9375 C-4.55306179 29.01084435 -6.07004101 28.26025408 -9 26 C-10.47739856 23.04520289 -10.35966133 21.31937437 -10 18 C-8.58316937 14.72688609 -6.81093485 11.6938004 -5 8.625 C-4.52304688 7.79355469 -4.04609375 6.96210938 -3.5546875 6.10546875 C-2.38108873 4.0634069 -1.19610873 2.02893125 0 0 Z " fill="#FF5041" transform="translate(254,219)"/>
<path d="M0 0 C2.5 2 2.5 2 4 4 C2.865625 4.309375 1.73125 4.61875 0.5625 4.9375 C-2.78775099 5.62924531 -2.78775099 5.62924531 -4 7 C-2.35 7.99 -0.7 8.98 1 10 C0.71097731 13.46827222 0.18328212 14.80653554 -2.25 17.375 C-5 19 -5 19 -7.5625 19.0625 C-10.86515757 17.62288003 -12.15161655 16.08063909 -14 13 C-14.69416823 8.92176163 -14.1781762 7.31477795 -12.125 3.6875 C-8.76715487 -0.55918649 -5.21485598 -0.79356504 0 0 Z " fill="#FF5142" transform="translate(366,195)"/>
<path d="M0 0 C2.1953125 0.4375 2.1953125 0.4375 5.2578125 2.375 C7.5141085 5.94140336 7.92029423 8.1226802 7.69140625 12.27734375 C6.88682006 15.78077809 5.03924903 17.38722018 2.1953125 19.4375 C1.2053125 19.4375 0.2153125 19.4375 -0.8046875 19.4375 C-0.8046875 18.7775 -0.8046875 18.1175 -0.8046875 17.4375 C-2.4546875 17.1075 -4.1046875 16.7775 -5.8046875 16.4375 C-6.1346875 14.4575 -6.4646875 12.4775 -6.8046875 10.4375 C-5.1546875 9.4475 -3.5046875 8.4575 -1.8046875 7.4375 C-4.99231115 5.31241756 -7.06980973 4.9354837 -10.8046875 4.4375 C-7.753105 0.19182001 -4.95575844 -0.26169021 0 0 Z " fill="#FF5141" transform="translate(150.8046875,194.5625)"/>
<path d="M0 0 C-0.13671875 2.328125 -0.13671875 2.328125 -1 5 C-3.58203125 6.546875 -3.58203125 6.546875 -6.8125 7.75 C-7.87082031 8.15734375 -8.92914063 8.5646875 -10.01953125 8.984375 C-21.8066171 13.00094423 -31.82491322 11.1211527 -43 6 C-43 5.67 -43 5.34 -43 5 C-35.73581213 4.87475538 -35.73581213 4.87475538 -32.0625 5.5 C-22.00492795 7.14205258 -14.72971315 4.60817072 -5.78515625 -0.1875 C-3.4920837 -1.23117416 -2.32290861 -0.82961022 0 0 Z " fill="#F64D3F" transform="translate(280,314)"/>
<path d="M0 0 C9.37047497 -0.91501926 9.37047497 -0.91501926 13.25390625 1.265625 C15.66256658 3.3373746 17.57258084 5.14516168 19 8 C19.039992 9.99960012 19.04346799 12.00047242 19 14 C11.84169949 11.55148675 4.60128787 8.79184607 0.8125 1.8125 C0.4103125 0.9153125 0.4103125 0.9153125 0 0 Z " fill="#F9B96C" transform="translate(187,219)"/>
<path d="M0 0 C1.50433594 0.01353516 1.50433594 0.01353516 3.0390625 0.02734375 C3.80992187 0.03894531 4.58078125 0.05054688 5.375 0.0625 C2.2389359 5.78922575 -1.85968588 9.02550379 -7.625 12.0625 C-11.1875 12.9375 -11.1875 12.9375 -13.625 13.0625 C-13.22209958 7.42189411 -11.40585674 5.02778877 -7.625 1.0625 C-4.98041621 -0.25979189 -2.94738699 -0.03427194 0 0 Z " fill="#F9B96C" transform="translate(313.625,218.9375)"/>
</svg>
